<svg width="20" height="20" viewBox="0 0 20 20" fill="none" xmlns="http://www.w3.org/2000/svg">
  <circle cx="10" cy="10" r="9" fill="url(#paint0_radial)" stroke="#6EB5FF" stroke-width="1.2"/>
  <path d="M7 8.5C7.55228 8.5 8 8.05228 8 7.5C8 6.94772 7.55228 6.5 7 6.5C6.44772 6.5 6 6.94772 6 7.5C6 8.05228 6.44772 8.5 7 8.5Z" fill="#27344F"/>
  <path d="M13 8.5C13.5523 8.5 14 8.05228 14 7.5C14 6.94772 13.5523 6.5 13 6.5C12.4477 6.5 12 6.94772 12 7.5C12 8.05228 12.4477 8.5 13 8.5Z" fill="#27344F"/>
  <path d="M6.5 12.5C7.25 13.8333 8.75 14.5 10 14.5C11.25 14.5 12.75 13.8333 13.5 12.5" stroke="#27344F" stroke-width="1.2" stroke-linecap="round"/>
  <defs>
    <radialGradient id="paint0_radial" cx="0" cy="0" r="1" gradientUnits="userSpaceOnUse" gradientTransform="translate(6 6) rotate(45) scale(16)">
      <stop stop-color="#FFE27A"/>
      <stop offset="1" stop-color="#FFB547"/>
    </radialGradient>
  </defs>
</svg>
