<svg width="33" height="33" viewBox="0 0 33 33" fill="none" xmlns="http://www.w3.org/2000/svg">
<g clip-path="url(#clip0_19_14)">
<path d="M12.0998 5.20591L13.0946 2.63789C13.2624 2.20309 13.5575 1.8291 13.9415 1.5649C14.3254 1.3007 14.7801 1.1586 15.2462 1.15723H17.1433C17.6093 1.1586 18.0641 1.3007 18.448 1.5649C18.8319 1.8291 19.1271 2.20309 19.2949 2.63789L20.2897 5.20591L23.6674 7.14928L26.3974 6.73285C26.852 6.67114 27.3146 6.74597 27.7266 6.94783C28.1385 7.14968 28.4812 7.46944 28.711 7.86648L29.6364 9.48595C29.8735 9.88931 29.9828 10.3551 29.9497 10.8218C29.9167 11.2886 29.7429 11.7343 29.4513 12.1002L27.7624 14.2518V18.1386L29.4976 20.2902C29.7892 20.6561 29.9629 21.1018 29.996 21.5686C30.029 22.0353 29.9198 22.5011 29.6826 22.9045L28.7572 24.5239C28.5274 24.921 28.1848 25.2407 27.7729 25.4426C27.3609 25.6444 26.8983 25.7193 26.4437 25.6576L23.7137 25.2411L20.336 27.1845L19.3411 29.7525C19.1734 30.1873 18.8782 30.5613 18.4943 30.8255C18.1103 31.0897 17.6556 31.2318 17.1895 31.2332H15.2462C14.7801 31.2318 14.3254 31.0897 13.9415 30.8255C13.5575 30.5613 13.2624 30.1873 13.0946 29.7525L12.0998 27.1845L8.72201 25.2411L5.99204 25.6576C5.53747 25.7193 5.07481 25.6444 4.66287 25.4426C4.25093 25.2407 3.90829 24.921 3.6785 24.5239L2.75309 22.9045C2.51596 22.5011 2.4067 22.0353 2.43974 21.5686C2.47279 21.1018 2.64657 20.6561 2.93817 20.2902L4.62705 18.1386V14.2518L2.8919 12.1002C2.6003 11.7343 2.42652 11.2886 2.39347 10.8218C2.36043 10.3551 2.46968 9.88931 2.70682 9.48595L3.63223 7.86648C3.86202 7.46944 4.20466 7.14968 4.6166 6.94783C5.02854 6.74597 5.4912 6.67114 5.94577 6.73285L8.67574 7.14928L12.0998 5.20591Z" stroke="#10223D" stroke-width="2.31353" stroke-linecap="round" stroke-linejoin="round"/>
<path d="M16.195 23.1361C20.0282 23.1361 23.1356 20.0287 23.1356 16.1955C23.1356 12.3623 20.0282 9.25488 16.195 9.25488C12.3618 9.25488 9.25439 12.3623 9.25439 16.1955C9.25439 20.0287 12.3618 23.1361 16.195 23.1361Z" stroke="#10223D" stroke-width="2.31353" stroke-linecap="round" stroke-linejoin="round"/>
<path d="M16.1948 9.25488V16.1955H23.1354" stroke="#10223D" stroke-width="2.31353" stroke-linecap="round" stroke-linejoin="round"/>
<path d="M16.1947 16.1953L11.29 21.1" stroke="#10223D" stroke-width="2.31353" stroke-linecap="round" stroke-linejoin="round"/>
</g>
<defs>
<clipPath id="clip0_19_14">
<rect width="32.3895" height="32.3895" fill="white"/>
</clipPath>
</defs>
</svg>
